<svg xmlns="http://www.w3.org/2000/svg" width="264" height="38" viewBox="0 0 264 38" fill="none">
  <path d="M9.68602 6.63356H0.653931V2.35807H23.7792V6.63356H14.7471V29.5659H9.68602V6.63356ZM31.2489 11.8419C32.6504 9.6653 35.116 8.57698 38.6459 8.57698V13.2023C38.2305 13.1246 37.8542 13.0857 37.5169 13.0857C35.6221 13.0857 34.1427 13.6432 33.0787 14.757C32.0145 15.8454 31.4825 17.4256 31.4825 19.499V29.5659H26.6161V8.8102H31.2489V11.8419ZM50.6021 8.57698C53.6646 8.57698 56.0005 9.31549 57.6097 10.7925C59.2448 12.244 60.0624 14.4461 60.0624 17.4001V29.5659H55.4685V27.0394C54.8715 27.9467 54.015 28.6464 52.899 29.1383C51.8089 29.6047 50.4853 29.8379 48.928 29.8379C47.3708 29.8379 46.0082 29.5792 44.8402 29.0606C43.6723 28.5164 42.7638 27.7779 42.115 26.8451C41.4921 25.8867 41.1807 24.8106 41.1807 23.619C41.1807 21.7533 41.8684 20.263 43.244 19.1492C44.6456 18.0086 46.8386 17.439 49.8234 17.439H55.196V17.128C55.196 15.6765 54.7547 14.5627 53.8723 13.7853C53.0158 13.008 51.7311 12.6193 50.0181 12.6193C48.8502 12.6193 47.6951 12.8003 46.5532 13.1634C45.4371 13.5266 44.4898 14.0319 43.7112 14.6793L41.8036 11.1423C42.8937 10.3127 44.2043 9.67867 45.7356 9.23775C47.2669 8.79684 48.8891 8.57698 50.6021 8.57698ZM49.9402 26.3009C51.16 26.3009 52.2372 26.0288 53.1716 25.4847C54.1318 24.915 54.8067 24.1109 55.196 23.0749V20.665H50.1738C47.3708 20.665 45.9692 21.5845 45.9692 23.4247C45.9692 24.3053 46.3196 25.0049 47.0204 25.5236C47.7212 26.0422 48.6944 26.3009 49.9402 26.3009ZM85.3934 8.8102L76.4781 29.5659H71.4559L62.5405 8.8102H67.6016L74.0643 24.202L80.7216 8.8102H85.3934ZM107.409 19.3046C107.409 19.6411 107.382 20.1209 107.331 20.7427H91.0186C91.3033 22.272 92.043 23.489 93.2377 24.3964C94.4567 25.277 95.9629 25.7179 97.7537 25.7179C100.037 25.7179 101.919 24.966 103.399 23.4635L106.007 26.4564C105.073 27.5702 103.892 28.4132 102.464 28.9828C101.036 29.5525 99.4278 29.8379 97.6369 29.8379C95.3521 29.8379 93.3411 29.3849 91.6026 28.4775C89.8628 27.5702 88.5136 26.3143 87.5537 24.7073C86.6193 23.0749 86.1522 21.2347 86.1522 19.188C86.1522 17.1669 86.606 15.3534 87.5148 13.7465C88.4491 12.114 89.7339 10.8447 91.369 9.93737C93.0041 9.03004 94.846 8.57698 96.8972 8.57698C98.9217 8.57698 100.725 9.03004 102.309 9.93737C103.917 10.818 105.163 12.0751 106.046 13.7076C106.954 15.3146 107.409 17.1802 107.409 19.3046ZM96.8972 12.4638C95.34 12.4638 94.0163 12.9302 92.9262 13.8631C91.8617 14.7704 91.2133 15.9875 90.9797 17.5167H102.776C102.568 16.0142 101.932 14.7959 100.868 13.8631C99.8037 12.9302 98.48 12.4638 96.8972 12.4638ZM112.083 0.725586H116.949V29.5659H112.083V0.725586ZM153.873 15.4178C155.378 15.9097 156.572 16.7393 157.455 17.9054C158.337 19.0459 158.779 20.4707 158.779 22.1809C158.779 24.5385 157.87 26.3653 156.054 27.6613C154.236 28.9306 151.589 29.5659 148.112 29.5659H134.563V2.35807H147.333C150.551 2.35807 153.029 2.99331 154.769 4.2626C156.507 5.50639 157.377 7.22995 157.377 9.43208C157.377 10.7791 157.066 11.9719 156.443 13.008C155.82 14.044 154.963 14.8481 153.873 15.4178ZM139.624 6.32262V13.8242H146.788C148.552 13.8242 149.902 13.5133 150.837 12.8914C151.797 12.244 152.277 11.3111 152.277 10.0928C152.277 8.84906 151.797 7.91622 150.837 7.29433C149.902 6.64693 148.552 6.32262 146.788 6.32262H139.624ZM147.8 25.6013C151.719 25.6013 153.679 24.2931 153.679 21.6756C153.679 19.0581 151.719 17.7499 147.8 17.7499H139.624V25.6013H147.8ZM183.84 8.8102V29.5659H179.207V26.9228C178.428 27.8557 177.455 28.5808 176.287 29.0994C175.119 29.5914 173.861 29.8379 172.511 29.8379C169.734 29.8379 167.541 29.0739 165.931 27.5447C164.348 25.99 163.556 23.6967 163.556 20.665V8.8102H168.423V20.0043C168.423 21.8699 168.839 23.2692 169.669 24.202C170.525 25.1094 171.732 25.5624 173.289 25.5624C175.029 25.5624 176.404 25.0316 177.416 23.9688C178.455 22.8805 178.973 21.3258 178.973 19.3046V8.8102H183.84ZM210.573 0.725586V29.5659H205.902V26.884C205.096 27.869 204.097 28.6075 202.904 29.0994C201.736 29.5914 200.438 29.8379 199.011 29.8379C197.012 29.8379 195.208 29.397 193.599 28.5164C192.015 27.6358 190.769 26.392 189.862 24.7851C188.953 23.1526 188.499 21.2869 188.499 19.188C188.499 17.0891 188.953 15.2368 189.862 13.6299C190.769 12.0229 192.015 10.7791 193.599 9.8985C195.208 9.01789 197.012 8.57698 199.011 8.57698C200.385 8.57698 201.645 8.8102 202.787 9.27662C203.928 9.74304 204.901 10.4427 205.707 11.3755V0.725586H210.573ZM199.595 25.679C200.763 25.679 201.814 25.4203 202.748 24.9017C203.682 24.3575 204.422 23.5935 204.967 22.6084C205.512 21.6234 205.785 20.484 205.785 19.188C205.785 17.892 205.512 16.7527 204.967 15.7676C204.422 14.7825 203.682 14.0319 202.748 13.5133C201.814 12.9691 200.763 12.697 199.595 12.697C198.427 12.697 197.376 12.9691 196.441 13.5133C195.507 14.0319 194.767 14.7825 194.222 15.7676C193.677 16.7527 193.405 17.892 193.405 19.188C193.405 20.484 193.677 21.6234 194.222 22.6084C194.767 23.5935 195.507 24.3575 196.441 24.9017C197.376 25.4203 198.427 25.679 199.595 25.679ZM237.3 0.725586V29.5659H232.628V26.884C231.824 27.869 230.825 28.6075 229.63 29.0994C228.462 29.5914 227.165 29.8379 225.737 29.8379C223.739 29.8379 221.935 29.397 220.326 28.5164C218.743 27.6358 217.497 26.392 216.588 24.7851C215.681 23.1526 215.226 21.2869 215.226 19.188C215.226 17.0891 215.681 15.2368 216.588 13.6299C217.497 12.0229 218.743 10.7791 220.326 9.8985C221.935 9.01789 223.739 8.57698 225.737 8.57698C227.113 8.57698 228.372 8.8102 229.513 9.27662C230.656 9.74304 231.629 10.4427 232.433 11.3755V0.725586H237.3ZM226.321 25.679C227.489 25.679 228.54 25.4203 229.474 24.9017C230.409 24.3575 231.149 23.5935 231.694 22.6084C232.239 21.6234 232.511 20.484 232.511 19.188C232.511 17.892 232.239 16.7527 231.694 15.7676C231.149 14.7825 230.409 14.0319 229.474 13.5133C228.54 12.9691 227.489 12.697 226.321 12.697C225.153 12.697 224.102 12.9691 223.168 13.5133C222.233 14.0319 221.494 14.7825 220.949 15.7676C220.403 16.7527 220.131 17.892 220.131 19.188C220.131 20.484 220.403 21.6234 220.949 22.6084C221.494 23.5935 222.233 24.3575 223.168 24.9017C224.102 25.4203 225.153 25.679 226.321 25.679ZM263.132 8.8102L253.399 31.2372C252.49 33.4916 251.388 35.0718 250.09 35.9791C248.792 36.912 247.222 37.3784 245.379 37.3784C244.341 37.3784 243.316 37.2096 242.304 36.8731C241.291 36.5366 240.46 36.0702 239.812 35.4738L241.759 31.8979C242.226 32.3389 242.771 32.6887 243.394 32.9474C244.042 33.2061 244.692 33.3361 245.34 33.3361C246.197 33.3361 246.898 33.1162 247.443 32.6753C248.013 32.2344 248.533 31.4959 249 30.4598L249.35 29.6436L240.279 8.8102H245.34L251.881 24.1632L258.46 8.8102H263.132Z" fill="white"/>
</svg>