<svg width="155" height="162" viewBox="0 0 155 162" fill="none" xmlns="http://www.w3.org/2000/svg">
<path id="Vector" d="M0.194946 67.7691C0.194946 26.9391 31.4009 0.539062 65.8917 0.539062C98.7401 0.539062 128.632 24.4795 131.343 62.0299H150.395C154.09 62.0299 155.896 66.4573 153.268 68.9989L126.251 95.9729C124.609 97.6126 122.062 97.6126 120.42 95.9729L93.4028 68.9989C92.8395 68.4259 92.4575 67.7007 92.3042 66.913C92.1497 66.1254 92.2312 65.31 92.5378 64.568C92.8432 63.8261 93.3602 63.19 94.0257 62.7389C94.69 62.2877 95.4723 62.0412 96.2765 62.0299H114.836C112.291 35.3019 91.5962 16.9366 65.8917 16.9366C38.3818 16.9366 16.6191 38.0075 16.6191 67.7691C16.6191 86.9542 32.6333 112.37 65.8917 142.706C71.1474 137.868 75.9932 133.195 80.4277 128.685C78.9824 125.84 78.2232 122.695 78.2098 119.503C78.2098 114.067 80.373 108.854 84.2235 105.01C88.0729 101.166 93.2945 99.0064 98.7401 99.0064C104.186 99.0064 109.407 101.166 113.257 105.01C117.107 108.854 119.27 114.067 119.27 119.503C119.268 122.674 118.526 125.801 117.104 128.634C115.681 131.469 113.618 133.935 111.076 135.836C108.535 137.737 105.585 139.022 102.46 139.588C99.3362 140.154 96.1219 139.986 93.0743 139.098C86.6689 145.821 79.3595 152.708 71.3117 159.759C68.1911 162.464 63.5108 162.464 60.3902 159.759C20.3152 124.505 0.194946 93.8412 0.194946 67.7691Z" fill="#DA1212"/>
</svg>
